<?xml version="1.0" encoding="UTF-8" standalone="no" ?>
<!DOCTYPE svg PUBLIC "-//W3C//DTD SVG 1.1//EN" "http://www.w3.org/Graphics/SVG/1.1/DTD/svg11.dtd">
<svg xmlns="http://www.w3.org/2000/svg" xmlns:xlink="http://www.w3.org/1999/xlink" version="1.1" width="755.846" height="322.4459999999999" xml:space="preserve">
<desc>Created with Fabric.js 1.6.0-rc.1</desc>
<defs></defs>
  <g transform="translate(384.12 81.31) scale(2.04 1.69)">
   <text font-family="Grunja" font-size="40" font-weight="bold" style="stroke: none; stroke-width: 1; stroke-dasharray: none; stroke-linecap: butt; stroke-linejoin: miter; stroke-miterlimit: 10; fill: #697f8a; fill-rule: nonzero; opacity: 1;" ><tspan x="-125.84" y="8.98" style="stroke: none; stroke-width: 0; stroke-dasharray: none; stroke-linecap: butt; stroke-linejoin: miter; stroke-miterlimit: 4; fill: #697f8a; fill-rule: ; opacity: 1;">G</tspan><tspan x="-93.48" y="8.98" style="stroke: none; stroke-width: 0; stroke-dasharray: none; stroke-linecap: butt; stroke-linejoin: miter; stroke-miterlimit: 4; fill: #697f8a; fill-rule: ; opacity: 1;">D</tspan><tspan x="-63.88" y="8.98" style="stroke: none; stroke-width: 0; stroke-dasharray: none; stroke-linecap: butt; stroke-linejoin: miter; stroke-miterlimit: 4; fill: #697f8a; fill-rule: ; opacity: 1;">K</tspan><tspan x="-36.92" y="8.98" style="stroke: none; stroke-width: 0; stroke-dasharray: none; stroke-linecap: butt; stroke-linejoin: miter; stroke-miterlimit: 4; fill: #697f8a; fill-rule: ; opacity: 1;"> </tspan><tspan x="-22.96" y="8.98" style="stroke: none; stroke-width: 0; stroke-dasharray: none; stroke-linecap: butt; stroke-linejoin: miter; stroke-miterlimit: 4; fill: #697f8a; fill-rule: ; opacity: 1;">G</tspan><tspan x="9.4" y="8.98" style="stroke: none; stroke-width: 0; stroke-dasharray: none; stroke-linecap: butt; stroke-linejoin: miter; stroke-miterlimit: 4; fill: #697f8a; fill-rule: ; opacity: 1;">A</tspan><tspan x="38.84" y="8.98" style="stroke: none; stroke-width: 0; stroke-dasharray: none; stroke-linecap: butt; stroke-linejoin: miter; stroke-miterlimit: 4; fill: #697f8a; fill-rule: ; opacity: 1;">M</tspan><tspan x="72.08" y="8.98" style="stroke: none; stroke-width: 0; stroke-dasharray: none; stroke-linecap: butt; stroke-linejoin: miter; stroke-miterlimit: 4; fill: #697f8a; fill-rule: ; opacity: 1;">E</tspan><tspan x="99.44" y="8.98" style="stroke: none; stroke-width: 0; stroke-dasharray: none; stroke-linecap: butt; stroke-linejoin: miter; stroke-miterlimit: 4; fill: #697f8a; fill-rule: ; opacity: 1;">S</tspan></text>
 </g>
<g style="stroke: none; stroke-width: 1; stroke-dasharray: none; stroke-linecap: butt; stroke-linejoin: miter; stroke-miterlimit: 10; fill: none; fill-rule: nonzero; opacity: 1;" transform="translate(10 10) scale(0.74 0.76)" >
  <path d="M 122.2 19.3 L 97.5 44.3 L 78.8 0 L 60.1 44.3 L 35.4 19.3 c -24.9 48 -27.6 75 -27.6 84.2 c -0.1 1.2 -0.2 2.4 -0.2 3.6 c 0 28 31.8 50.6 71 50.6 c 39.2 0 70.9 -22.6 71 -50.6 l 0 0 C 149.6 107.1 153.7 80 122.2 19.3 L 122.2 19.3 z" style="stroke: none; stroke-width: 1; stroke-dasharray: none; stroke-linecap: butt; stroke-linejoin: miter; stroke-miterlimit: 10; fill: #2B72BA; fill-rule: nonzero; opacity: 1;" transform=" matrix(1 0 0 1 0 0) " stroke-linecap="round" />
  <path d="M 103 120.5 c 0 0 -13.1 -4.3 -20.5 7.3 c 0 0 -8.1 8.1 -22.5 2.4 c 0 0 8.9 11.2 25.3 0.6 c 0 0 19 6.9 30.2 -10.3 C 115.6 120.5 108.8 121.8 103 120.5 z" style="stroke: none; stroke-width: 1; stroke-dasharray: none; stroke-linecap: butt; stroke-linejoin: miter; stroke-miterlimit: 10; fill: #F5F5F5; fill-rule: nonzero; opacity: 1;" transform=" matrix(1 0 0 1 0 0) " stroke-linecap="round" />
  <path d="M 81.1 100.7 c -0.4 0.2 -0.8 1 -1.2 1 h -2.1 c -0.3 0 -0.7 -0.8 -1.2 -1 L 0 68.9 c 0 0 17.5 36.4 38.3 43.7 c 0 0 15.8 8 38.3 -7 h 4.5 c 22.5 15 38.3 6.9 38.3 6.9 c 20.8 -7.3 38.3 -43.7 38.3 -43.7 L 81.1 100.7 z" style="stroke: none; stroke-width: 1; stroke-dasharray: none; stroke-linecap: butt; stroke-linejoin: miter; stroke-miterlimit: 10; fill: #020324; fill-rule: nonzero; opacity: 1;" transform=" matrix(1 0 0 1 0 0) " stroke-linecap="round" />
  <ellipse cx="370.2" cy="275.5" rx="6.8" ry="3.9" style="stroke: none; stroke-width: 1; stroke-dasharray: none; stroke-linecap: butt; stroke-linejoin: miter; stroke-miterlimit: 10; fill: #E6431E; fill-rule: nonzero; opacity: 1;" transform=" matrix(0.3294 -0.9442 0.9442 0.3294 -237.5496 399.5684) "/>
  <path d="M 317 259.9 c 0 0 -3.1 9.2 48.6 21.7 c 0 0 -5.4 -9.4 5.1 -13.9 C 370.7 267.7 327.5 251.9 317 259.9 L 317 259.9 z" style="stroke: none; stroke-width: 1; stroke-dasharray: none; stroke-linecap: butt; stroke-linejoin: miter; stroke-miterlimit: 10; fill: #E6431E; fill-rule: nonzero; opacity: 1;" transform=" matrix(1 0 0 1 -225.64 -134.708) " stroke-linecap="round" />
  <path d="M 115.5 96.3 c 4.8 -2 7.1 -7.4 5.2 -12.2 l -17.4 7.1 C 105.2 96 110.7 98.3 115.5 96.3 z M 42.6 96.3 c -4.8 -2 -7.1 -7.4 -5.2 -12.2 l 17.4 7.1 C 52.9 96 47.4 98.3 42.6 96.3 z M 78.7 25.9 L 63 50.7 L 78.8 15 l 16.1 35.7 L 78.7 25.9 z M 121.3 32.9 L 99.8 46.6 l 21.5 -22.2 l 13 28.5 L 121.3 32.9 z M 36.3 32.9 l 21.5 13.7 L 36.3 24.4 l -13 28.5 L 36.3 32.9 z" style="stroke: none; stroke-width: 1; stroke-dasharray: none; stroke-linecap: butt; stroke-linejoin: miter; stroke-miterlimit: 10; fill: #F5F5F5; fill-rule: nonzero; opacity: 1;" transform=" matrix(1 0 0 1 0 0) " stroke-linecap="round" />
</g>
  <g transform="translate(546.64 154.72)">
   <text font-family="Gilgongo Tiki" font-size="40" font-weight="bold" style="stroke: none; stroke-width: 1; stroke-dasharray: none; stroke-linecap: butt; stroke-linejoin: miter; stroke-miterlimit: 10; fill: #d44742; fill-rule: nonzero; opacity: 1;" ><tspan x="-105.14" y="8.98" style="stroke: none; stroke-width: 0; stroke-dasharray: none; stroke-linecap: butt; stroke-linejoin: miter; stroke-miterlimit: 4; fill: #d44742; fill-rule: ; opacity: 1;">P</tspan><tspan x="-76.46" y="8.98" style="stroke: none; stroke-width: 0; stroke-dasharray: none; stroke-linecap: butt; stroke-linejoin: miter; stroke-miterlimit: 4; fill: #d44742; fill-rule: ; opacity: 1;">R</tspan><tspan x="-46.82" y="8.98" style="stroke: none; stroke-width: 0; stroke-dasharray: none; stroke-linecap: butt; stroke-linejoin: miter; stroke-miterlimit: 4; fill: #d44742; fill-rule: ; opacity: 1;">E</tspan><tspan x="-24.3" y="8.98" style="stroke: none; stroke-width: 0; stroke-dasharray: none; stroke-linecap: butt; stroke-linejoin: miter; stroke-miterlimit: 4; fill: #d44742; fill-rule: ; opacity: 1;">S</tspan><tspan x="1.3" y="8.98" style="stroke: none; stroke-width: 0; stroke-dasharray: none; stroke-linecap: butt; stroke-linejoin: miter; stroke-miterlimit: 4; fill: #d44742; fill-rule: ; opacity: 1;">E</tspan><tspan x="23.82" y="8.98" style="stroke: none; stroke-width: 0; stroke-dasharray: none; stroke-linecap: butt; stroke-linejoin: miter; stroke-miterlimit: 4; fill: #d44742; fill-rule: ; opacity: 1;">N</tspan><tspan x="52.3" y="8.98" style="stroke: none; stroke-width: 0; stroke-dasharray: none; stroke-linecap: butt; stroke-linejoin: miter; stroke-miterlimit: 4; fill: #d44742; fill-rule: ; opacity: 1;">T</tspan><tspan x="79.54" y="8.98" style="stroke: none; stroke-width: 0; stroke-dasharray: none; stroke-linecap: butt; stroke-linejoin: miter; stroke-miterlimit: 4; fill: #d44742; fill-rule: ; opacity: 1;">S</tspan></text>
 </g>
<g style="stroke: none; stroke-width: 1; stroke-dasharray: none; stroke-linecap: butt; stroke-linejoin: miter; stroke-miterlimit: 10; fill: none; fill-rule: nonzero; opacity: 1;" transform="translate(529.3900000000001 95.98999999999998) rotate(319.11) scale(3.11 3.11)" >
  <path d="M 0 0 h 24.253 l -9.677 9.711 l 22.176 22.133 l -4.861 4.859 L 9.716 14.57 L 0 24.248 V 0 z" style="stroke: none; stroke-width: 1; stroke-dasharray: none; stroke-linecap: butt; stroke-linejoin: miter; stroke-miterlimit: 10; fill: #373535; fill-rule: nonzero; opacity: 0;" transform=" matrix(1 0 0 1 0 0) " stroke-linecap="round" />
  <path d="M 0 34.268 h 6.891 c 0 7.57 2.677 14.037 8.032 19.4 c 5.355 5.361 11.814 8.039 19.376 8.039 c 7.561 0 14.019 -2.676 19.375 -8.031 c 5.354 -5.357 8.033 -11.816 8.033 -19.379 c 0 -7.535 -2.628 -13.961 -7.878 -19.287 c -5.25 -5.324 -11.599 -7.986 -19.042 -7.986 V 0.131 c 9.369 0 17.347 3.33 23.933 9.988 c 6.586 6.662 9.879 14.719 9.879 24.178 c 0 9.486 -3.345 17.576 -10.034 24.268 c -6.69 6.691 -14.779 10.037 -24.265 10.037 c -9.487 0 -17.576 -3.35 -24.265 -10.045 C 3.344 51.859 0 43.764 0 34.268" style="stroke: none; stroke-width: 1; stroke-dasharray: none; stroke-linecap: butt; stroke-linejoin: miter; stroke-miterlimit: 10; fill: #F26D46; fill-rule: nonzero; opacity: 1;" transform=" matrix(1 0 0 1 0 0) " stroke-linecap="round" />
</g>
</svg>